<svg xmlns="http://www.w3.org/2000/svg" width="222" height="274" viewBox="0 0 58.737 72.496"><defs><linearGradient id="b" x1="20" x2="20" y1="20" y2="254.03" gradientUnits="userSpaceOnUse"><stop offset="0" stop-color="#407"/><stop offset="1" stop-color="#359"/></linearGradient><linearGradient id="a" x2="0" y2="272.55" gradientUnits="userSpaceOnUse"><stop offset="0" stop-color="#407"/><stop offset="1" stop-color="#359"/></linearGradient></defs><path fill="url(#a)" d="M0 0v274h106V0zm5 5h96.001v264h-96z" paint-order="stroke fill markers" shape-rendering="crispEdges" transform="translate(15.346) scale(.26458)"/><g shape-rendering="crispEdges"><path fill="#417" d="M20.638 5.292h2.117v11.112h-2.117z" paint-order="stroke fill markers"/><path fill="#417" d="M26.458 5.292h2.117v11.112h-2.117z" paint-order="stroke fill markers"/><path fill="#3C2883" d="M20.638 17.992h2.117v11.112h-2.117z" paint-order="stroke fill markers"/><path fill="#3C2883" d="M26.458 17.992h2.117v11.112h-2.117z" paint-order="stroke fill markers"/><g stroke-width=".265"><path fill="#373889" d="M20.638 30.692v11.112h7.937v-4.498h-2.117v2.646h-3.704v-9.26z" paint-order="stroke fill markers"/><path fill="#2e4a8f" d="M20.638 43.392v3.704h1.852v-1.852h1.587v7.408H22.49v1.852h5.291v-1.852h-1.587v-7.408h1.587v1.852h1.852v-3.704z" paint-order="stroke fill markers"/><path fill="#373889" d="M31.221 30.692v1.852h2.381v7.408h-2.381v1.852h6.88v-1.852h-2.382v-7.408H38.1v-1.852z" paint-order="stroke fill markers"/><path fill="#2e4a8f" d="M31.221 43.392v1.852h2.381v7.408h-2.381v1.852h6.88v-1.852h-2.382v-7.408H38.1v-1.852z" paint-order="stroke fill markers"/></g><g fill="#359"><path d="M30.136 58.738h2.117v5.821h-2.117z" paint-order="stroke fill markers"/><path d="M32.808 56.092v1.852h3.44v1.852H38.1v-3.704z" paint-order="stroke fill markers"/><path d="M32.808 67.204v-1.852H38.1v1.852z" paint-order="stroke fill markers"/><path d="M20.638 58.738h2.117v5.821h-2.117z" paint-order="stroke fill markers"/><path d="M23.284 56.092v1.852h3.44v1.852h1.851v-3.704z" paint-order="stroke fill markers"/><path d="M23.284 67.204v-1.852h5.292v1.852z" paint-order="stroke fill markers"/></g></g><path fill="#3C2883" d="M20.833 19.058l1.92-1.067 5.62 10.046-1.92 1.066z" paint-order="stroke fill markers"/><g fill="#417"><path d="M32.279 7.938c0-.531.259-.794.53-.794.617 0 .616-1.852 0-1.852-1.815 0-2.647 1.038-2.647 2.645 0 .706 2.117.706 2.117 0z"/><path d="M35.983 7.938c0-.531-.259-.794-.53-.794-.617 0-.616-1.852 0-1.852 1.815 0 2.647 1.038 2.647 2.645 0 .706-2.117.706-2.117 0z"/><path d="M32.279 13.758c0 .53.259.794.53.794.617 0 .616 1.852 0 1.852-1.815 0-2.647-1.039-2.647-2.646 0-.705 2.117-.705 2.117 0z"/><path d="M35.983 13.758c0 .53-.259.794-.53.794-.617 0-.616 1.852 0 1.852 1.815 0 2.647-1.039 2.647-2.646 0-.705-2.117-.705-2.117 0z"/></g><g fill="#3C2883"><path d="M32.279 20.637c0-.53.259-.794.53-.794.617 0 .616-1.852 0-1.852-1.815 0-2.647 1.039-2.647 2.646 0 .706 2.117.706 2.117 0z"/><path d="M35.983 20.637c0-.53-.259-.794-.53-.794-.617 0-.616-1.852 0-1.852 1.815 0 2.647 1.039 2.647 2.646 0 .706-2.117.706-2.117 0z"/><path d="M32.279 26.458c0 .53.259.794.53.794.617 0 .616 1.852 0 1.852-1.815 0-2.647-1.039-2.647-2.646 0-.705 2.117-.705 2.117 0z"/><path d="M35.983 26.458c0 .53-.259.794-.53.794-.617 0-.616 1.852 0 1.852 1.815 0 2.647-1.039 2.647-2.646 0-.705-2.117-.705-2.117 0z"/></g><g fill="#359"><path d="M32.279 58.737c0-.53.259-.794.53-.794.617 0 .616-1.852 0-1.852-1.815 0-2.647 1.039-2.647 2.646 0 .706 2.117.706 2.117 0z"/><path d="M32.279 64.558c0 .53.259.794.53.794.617 0 .616 1.852 0 1.852-1.815 0-2.647-1.039-2.647-2.646 0-.705 2.117-.705 2.117 0z"/><path d="M22.755 58.737c0-.53.259-.794.529-.794.617 0 .617-1.852 0-1.852-1.814 0-2.677 1.804-2.645 2.646.026.705 2.116.706 2.116 0z"/><path d="M22.754 64.558c0 .53.26.794.53.794.617 0 .617 1.852 0 1.852-1.815 0-2.646-1.039-2.646-2.646 0-.705 2.116-.705 2.116 0z"/></g><path fill="#417" d="M22.756 5.292l-1.92 1.067 3.326 5.944h.889l3.326-5.944-1.92-1.067-1.85 3.306z" paint-order="stroke fill markers"/><g shape-rendering="crispEdges"><g fill="#417"><path d="M30.136 7.937h2.116v5.821h-2.116z" paint-order="stroke fill markers"/><path d="M35.983 7.937H38.1v5.821h-2.117z" paint-order="stroke fill markers"/><path d="M32.808 7.144V5.292h2.646v1.852z" paint-order="stroke fill markers"/><path d="M32.808 16.404v-1.852h2.646v1.852z" paint-order="stroke fill markers"/></g><g fill="#3C2883"><path d="M30.136 20.637h2.116v5.821h-2.116z" paint-order="stroke fill markers"/><path d="M35.983 20.637H38.1v5.821h-2.117z" paint-order="stroke fill markers"/><path d="M32.808 19.844v-1.852h2.646v1.852z" paint-order="stroke fill markers"/><path d="M32.808 29.104v-1.852h2.646v1.852z" paint-order="stroke fill markers"/></g></g><g fill="#902" stroke="#902" shape-rendering="geometricPrecision" white-space="normal"><path stroke="none" stroke-width=".527" style="font-feature-settings:normal;font-variant-alternates:normal;font-variant-caps:normal;font-variant-ligatures:normal;font-variant-numeric:normal;font-variant-position:normal;shape-padding:0;text-decoration-color:#000;text-decoration-line:none;text-decoration-style:solid;text-indent:0;text-orientation:mixed;text-transform:none" d="M7.518 13.626c-.09 0-.127.014-.204.033a7.556 7.556 0 0 0-.295.082c-.243.071-.58.176-1.013.316-.888.273-1.685.414-2.387.428h-.013a.903.903 0 0 0-.331.073c-.105.048-.233.184-.233.337 0 .264.193.493.438.612.282.185.613.284.973.284.044 0 .122-.015.17-.021.031.338.055.719.064 1.157-1.212.26-2.123.429-2.424.44a.923.923 0 0 0-.43.094.489.489 0 0 0-.246.396c0 .314.212.577.514.783l.002.002h.001c.29.19.563.304.838.304.248 0 .485-.107.88-.284l.008-.002.008-.005c.167-.087.53-.206.889-.32.012.637.038 1.178.16 1.494l.004.011.006.012c.188.374.558.634 1.049.799.491.164 1.116.242 1.886.25l.009.001.007-.002c.347-.015.64-.053.887-.12l.002-.003h.002a.933.933 0 0 0 .407-.224c.11-.109.18-.261.191-.415l.002-.027-.004-.027c-.034-.264-.206-.486-.446-.663l-.011-.01-.012-.007c-.262-.151-.516-.238-.77-.238-.199 0-.41.052-.641.143l-.008.003-.008.004a1.763 1.763 0 0 1-.679.189h-.004c-.286.013-.413-.05-.499-.171l-.021-.032-.03-.023c.038.03-.04-.067-.074-.277a6.182 6.182 0 0 1-.053-.92v-.116c1.07-.234 2.077-.391 3.008-.456.376-.02.663-.052.88-.107a.925.925 0 0 0 .288-.115.41.41 0 0 0 .194-.31l.002-.008v-.12a.645.645 0 0 0-.172-.412c-.098-.1-.224-.22-.42-.31-.217-.098-.433-.206-.684-.206-.212 0-.45.043-.73.122l-.017.006-.018.006a7.442 7.442 0 0 1-.818.238c-.34.085-.859.201-1.39.32.025-.1 0-.137.049-.36.056-.173.044-.147.06-.25.007-.104.022-.118.002-.348-.011-.127-.025-.12-.044-.217.12-.034.258-.07.345-.098l.007-.002c.566-.159.996-.303 1.3-.438.153-.068.273-.132.373-.209.1-.076.207-.175.214-.35l.002-.006v-.007c0-.252-.19-.458-.419-.572l-.006-.004-.004-.002a1.379 1.379 0 0 0-.563-.125z" aria-label="モ"/><path stroke="none" style="font-feature-settings:normal;font-variant-alternates:normal;font-variant-caps:normal;font-variant-ligatures:normal;font-variant-numeric:normal;font-variant-position:normal;shape-padding:0;text-decoration-color:#000;text-decoration-line:none;text-decoration-style:solid;text-indent:0;text-orientation:mixed;text-transform:none" d="M7.89 32.664a.759.759 0 0 0-.116.424c-.011.318-.326 1.253-.623 1.823-.48.922-1.145 1.746-1.84 2.522a16.142 16.142 0 0 1-2.631 2.405c-.33.19-.098.557.091.508 1.59-.413 2.938-1.301 3.786-2.16.742-.754 1.284-1.512 1.9-2.288.304-.384.487-.844.887-1.172s.5-.334.561-.584c.028-.118.035-.277-.098-.573-.133-.296-.392-.645-.633-.822-.24-.176-.201-.14-.45-.243-.554-.23-.747.033-.834.16z" aria-label="ノ"/><path stroke="none" stroke-width=".529" style="font-feature-settings:normal;font-variant-alternates:normal;font-variant-caps:normal;font-variant-ligatures:normal;font-variant-numeric:normal;font-variant-position:normal;shape-padding:0;text-decoration-color:#000;text-decoration-line:none;text-decoration-style:solid;text-indent:0;text-orientation:mixed;text-transform:none" d="M7.555 50.536a.681.681 0 0 0-.325.06.428.428 0 0 0-.215.341c0 .126.04.175.076.238.033.056.076.114.125.18.11.171.165.352.165.564v3.408c0 1.261-.516 2.652-1.815 4.59-.093.137.149.331.287.26.029-.014 1.011-.71 1.011-.71.93-.67 1.928-2.25 1.945-4.042v-.004l.069-3.038v-.002c.007-.21.038-.356.059-.404.094-.16.172-.275.19-.43.008-.069-.038-.203-.038-.203a.773.773 0 0 0-.227-.283 2.154 2.154 0 0 0-.48-.284l-.004-.002-.001-.002c-.347-.15-.59-.238-.822-.238zm-3.178 1.128a.56.56 0 0 0-.38.125.513.513 0 0 0-.16.38c0 .185.084.3.189.43.043.092.192.394.207 1.212.015.819-.045.927-.09 1.066-.06.186-.17.36-.17.519 0 .223.073.453.196.717l.004.005.002.007c.152.286.305.508.587.558l.024.004h.023c.26 0 .445-.176.603-.396l.01-.014.01-.017c.115-.222.194-.487.204-.781.009-.294-.065-.826-.08-1.24-.008-.227-.005-.682-.005-.682 0-.101.054-.512.063-.563.028-.066.063-.12.088-.182a.376.376 0 0 0-.01-.293c-.061-.136-.245-.333-.54-.522-.276-.202-.513-.333-.775-.333z" aria-label="リ"/><path stroke="none" stroke-width=".529" style="font-feature-settings:normal;font-variant-alternates:normal;font-variant-caps:normal;font-variant-ligatures:normal;font-variant-numeric:normal;font-variant-position:normal;shape-padding:0;text-decoration-color:#000;text-decoration-line:none;text-decoration-style:solid;text-indent:0;text-orientation:mixed;text-transform:none" d="M53.244 12.832c-.139 0-.294.034-.552.09-.259.057-.6.139-1.03.25-.958.242-1.634.368-1.978.381h.01c-.079 0-.222 0-.306.145a.435.435 0 0 0-.034.362c.087.307.176.414.33.55.261.23.534.365.85.356.288-.01.741-.114 1.451-.307h.006c.783-.227 1.302-.356 1.489-.38l.007-.003h.006c.273-.05.497-.13.62-.24s.12-.112.17-.195a.679.679 0 0 0 .065-.38.623.623 0 0 0-.328-.493c-.209-.102-.462-.136-.776-.136zm1.732 2.322c-.164 0-.448.04-.973.114-.525.075-1.259.188-2.203.337l.002-.003c-1.914.28-2.983.388-3.25.429-.54.054-.735-.162-1.047-.025a.43.43 0 0 0-.277.408c0 .291.2.548.4.75.25.254.595.513.942.513.259 0 .7-.094 1.48-.27.687-.14.964-.19 1.21-.235-.034.327-.071.661-.2 1.11-.235.793-.497 1.418-.778 1.868-.312.499-.586.89-1.106 1.258-.452.32-.015.439.156.418.17-.02.19-.023.44-.116.252-.093.934-.43 1.36-.815.347-.287.674-.7.998-1.241l.002-.002.002-.003c.227-.395.494-.92.633-1.392.139-.472.155-.538.226-.842.08-.348-.006-.436.11-.467.536-.145 1.1-.094 1.4-.094.231 0 .495.01.79.033.176.022.317.038.553.053.251.045.4-.047.505-.168a.572.572 0 0 0 .135-.355.936.936 0 0 0-.075-.435c-.089-.188-.158-.28-.405-.471a1.705 1.705 0 0 0-1.03-.357z" aria-label="テ"/><path stroke="none" stroke-width=".595" style="font-feature-settings:normal;font-variant-alternates:normal;font-variant-caps:normal;font-variant-ligatures:normal;font-variant-numeric:normal;font-variant-position:normal;shape-padding:0;text-decoration-color:#000;text-decoration-line:none;text-decoration-style:solid;text-indent:0;text-orientation:mixed;text-transform:none" d="M54.127 32.94a.49.49 0 0 0-.374.196.64.64 0 0 0-.1.352c-.002.017-.088.241-.322.532-.235.291-.597.669-1.081 1.122v.002c-.788.743-1.855 1.588-2.907 2.194-.245.141-.131.646.227.538.357-.108.245-.065.648-.226.404-.161 1.247-.55 2.129-1.149.002.038.08.808.079 1.213 0 .61-.254 1.416-.123 1.824.203.628.406.968.733.942a.8.8 0 0 0 .68-.528c.17-.485.26-.865.26-1.323 0-.367-.067-.564-.2-1.323-.095-.548-.08-.742-.096-1.442-.003-.157.428-.565.684-.807.216-.205.623-.479.712-.54.096-.066.234-.194.221-.395-.013-.2-.2-.503-.432-.738-.228-.254-.44-.443-.738-.443z" aria-label="ィ"/><path stroke="none" stroke-width=".529" style="font-feature-settings:normal;font-variant-alternates:normal;font-variant-caps:normal;font-variant-ligatures:normal;font-variant-numeric:normal;font-variant-position:normal;shape-padding:0;text-decoration-color:#000;text-decoration-line:none;text-decoration-style:solid;text-indent:0;text-orientation:mixed;text-transform:none" d="M51.032 51.255a.513.513 0 0 0-.098.327c0 .483-.22 1.188-.726 1.96l-.002.002-.002.004c-.436.702-.971 1.337-1.663 1.845-.334.245.01.446.169.423.16-.023.2-.033.472-.123.334-.116.97-.455 1.602-.95l.003-.002c.539-.432.892-.796 1.159-1.14.207.062.415.119.635.119.29 0 .513-.021.704-.099.078-.02.1-.02.153-.028-.027.058-.052.112-.097.196-.128.245-.325.591-.588 1.035l-.002.002v.002c-.507.89-1.02 1.638-1.536 2.245l-.002.003v.001c-.913 1.124-1.569 1.811-2.844 2.678-.145.098-.109.465.178.436.062-.007.175-.038.619-.168.576-.184 1.591-.715 2.483-1.445h.002a10.561 10.561 0 0 0 2.299-2.667 24 24 0 0 1 .855-1.32c.222-.313.407-.504.432-.52.169-.11.336-.196.478-.305.072-.054.197-.173.233-.28.022-.063.011-.166-.036-.291-.042-.108-.137-.312-.25-.417-.136-.125-.464-.275-.656-.353-.23-.093-.38-.302-.721-.296-.34.005-.562.149-.925.275-.253.088-.573.242-.735.248.036-.054.185-.366.168-.517-.017-.142-.166-.215-.518-.513-.352-.298-.43-.38-.553-.454a.637.637 0 0 0-.406-.098.426.426 0 0 0-.284.185z" aria-label="ク"/></g></svg>