<?xml version="1.0" encoding="UTF-8"?>
<svg width="700" height="304" version="1.1" viewBox="0 0 185.20833 80.433335" xmlns="http://www.w3.org/2000/svg" xmlns:cc="http://creativecommons.org/ns#" xmlns:dc="http://purl.org/dc/elements/1.1/" xmlns:rdf="http://www.w3.org/1999/02/22-rdf-syntax-ns#">
<metadata>
<rdf:RDF>
<cc:Work rdf:about="">
<dc:format>image/svg+xml</dc:format>
<dc:type rdf:resource="http://purl.org/dc/dcmitype/StillImage"/>
<dc:title/>
</cc:Work>
</rdf:RDF>
</metadata>
<g fill="#966">
<path d="m33.867 80.698v-7.1692c0-1.412 2.7781-1.2898 2.7781-2.3897v-5.045c0-1.4032 5.6885-3.4309 5.6885-1.5932v8.2313c0 1.0826 3.175 1.4112 3.175-0.53106v-8.7624c0-1.7637 4.277-0.71173 4.7625-3.9829 0.3638-2.4514 10.054-0.70317 10.054 0.28923v10.066c0 2.6691 4.2333 1.7588 4.2333 3.9829v1.8587c0 1.9324 7.4083 1.7251 7.4083 3.4519v1.5932z"/>
<path d="m165.89 63.067c3.0895 0.76187 4.4979 1.6613 4.4979 2.8946v3.4209c0 2.2964 2.1167 1.3311 2.1167 3.9472v7.3681h-69.85l4.2333-3.6841v-5.5261c0-2.0578 2.2182-2.3677 5.5562-2.8946 2.9763-0.46987 3.9688 0.02201 3.9688 2.1251v2.6186c0 0.43891 0.65089 1.3087 1.8521 1.3087 2.2662 0 2.7781-0.57022 2.7781-1.842v-7.6313c0-1.1678 2.1563-1.3764 3.3073-1.3157 1.2031 0.06341 3.7041 0.35824 3.7041 1.5789l6e-5 4.2104c0 1.0823 0.2657 1.8812 2.9104 2.3683 2.2468 0.41383 2.1167-0.37631 2.1167-2.3683 0-2.1298 4.4979-1.1756 4.4979-3.4209 0-1.9329 8.3142-0.99596 8.9958 0.26315 0.80796 1.4924 0.73828 3.2137 2.9104 3.6841 0.91135 0.19736 2.9104 0.52848 2.9104 1.842v3.1578c0 1.1684 1.1617 2.3749 4.4979 1.842s3.9687-1.0406 3.9687-2.3683l1e-5 -7.6313c1e-5 -2.9457-0.12939-5.2188 5.0271-3.9472z"/>
</g>
<g>
<path transform="scale(.26458)" d="m184 100c-5.54 0-10 4.46-10 10 0 5.54 4.46 10 10 10h20 60c5.5399 0 9.998 4.46 9.998 10 0 5.54-4.4581 10-9.998 10h-40c-5.5399 0-10 4.46-10 10 0 5.54 4.4601 10 10 10h180c5.54 0 10-4.46 10-10 0-5.54-4.46-10-10-10h-20-60c-5.54 0-10-4.46-10-10 0-5.54 4.46-10 10-10h40c5.5399 0 10-4.46 10-10 0-5.54-4.4601-10-10-10h-180zm210 0c-5.54 0-10 4.46-10 10s4.46 10 10 10h30c5.54 0 10-4.46 10-10s-4.46-10-10-10h-30zm-228 48c-5.54 0-10 4.46-10 10s4.46 10 10 10h20c5.54 0 10-4.46 10-10s-4.46-10-10-10h-20z" fill="#eee" opacity=".5" style="paint-order:stroke fill markers"/>
</g>
</svg>
