<?xml version="1.0" encoding="UTF-8"?>
<svg width="700" height="304" version="1.1" viewBox="0 0 185.20833 80.433335" xmlns="http://www.w3.org/2000/svg" xmlns:cc="http://creativecommons.org/ns#" xmlns:dc="http://purl.org/dc/elements/1.1/" xmlns:rdf="http://www.w3.org/1999/02/22-rdf-syntax-ns#">
<metadata>
<rdf:RDF>
<cc:Work rdf:about="">
<dc:format>image/svg+xml</dc:format>
<dc:type rdf:resource="http://purl.org/dc/dcmitype/StillImage"/>
<dc:title/>
</cc:Work>
</rdf:RDF>
</metadata>
<g transform="translate(0 53.975)" fill="#966">
<path d="m130.44 6.0857c-0.75113 0.010414-1.3229 0.46366-1.3229 1.0583v8.9957c0 1.6694-4.2334 0.08196-4.2334-1.5875l5e-5 -3.9687c2e-5 -1.7807-7.4084 0.109-7.4084 1.3229v14.816h37.571s-3.7306-1.4091-4.4979-1.8521c-0.9051-0.52259-0.85157-2.6436-1.8521-2.9104l-3.9688-1.0583c-1.9018-0.50714-1.8521-0.89498-1.8521-2.9104v-8.4665c0-1.5233-1.3084-1.5891-4.4979-1.8521-1.7591-0.14504-3.6954 1.8317-5.2917 1.0583-0.78358-0.37964-0.5204-2.0458-1.3229-2.3812-0.32163-0.13444-0.77306-0.27221-1.3229-0.26458z"/>
<path d="m82.286 22.758v-3.9645c0-2.5633-4.7621-0.32278-4.7621-3.1716 0-2.6083-4.7621 0.22926-4.7621-3.4359v-2.3787c0-1.2534-1.6733-1.7516-4.7621-1.3215-1.2387 0.17246-4.4976 0.78852-4.4976 1.8501v7.4005c0 3.7309-12.699 6.1754-12.699 1.8501v-4.7574c0-2.5098-9.2245-3.9541-9.7888-1.8501-0.35479 1.3228-0.51219 1.8501-2.3811 1.8501-3.3187 0-2.9102-1.8592-2.9102-3.7002 0-1.5934-5.0267-1.2501-5.0267-0.2643v9.7792c0 1.2789-1.8519 1.5858-1.8519 1.5858s-2.3811 0.54434-2.3811-1.5858v-7.4005c0-2.2625-10.582-3.8661-10.582-0.52861v3.9645c0 2.7917-2.2499 1.2966-2.1165 4.2288v5.8147h71.432z"/>
</g>
<g>
<path transform="scale(.26458)" d="m540 96c-5.54 0-10 4.46-10 10s4.46 10 10 10h20c5.54 0 10-4.46 10-10s-4.46-10-10-10h-20zm-190 28c-5.54 0-10 4.46-10 10s4.46 10 10 10h30c5.54 0 10-4.46 10-10s-4.46-10-10-10h-30zm60 0c-5.54 0-10 4.46-10 10 0 5.54 4.46 10 10 10h40c5.54 0 10 4.46 10 10 0 5.54-4.46 10-10 10h-60-20c-5.54 0-10 4.46-10 10 0 5.54 4.46 10 10 10h180c5.54 0 10-4.46 10-10 0-5.54-4.46-10-10-10h-40c-5.54 0-10-4.46-10-10 0-5.54 4.46-10 10-10h60 20c5.54 0 10-4.46 10-10 0-5.54-4.46-10-10-10h-180z" fill="#eee" opacity=".5" style="paint-order:stroke fill markers"/>
</g>
</svg>
